<svg width="84" height="29" viewBox="0 0 84 29" fill="none" xmlns="http://www.w3.org/2000/svg">
<g clip-path="url(#clip0_1_696)">
<path d="M3.49904 6.71026C3.8442 6.72529 4.18875 6.66908 4.51124 6.54514C4.83373 6.42121 5.12725 6.23219 5.37351 5.98987C5.61977 5.74755 5.81349 5.45712 5.94261 5.13668C6.07174 4.81623 6.13349 4.47262 6.12404 4.12726C6.13374 3.78176 6.07216 3.43797 5.94315 3.11731C5.81413 2.79665 5.62045 2.50601 5.37416 2.2635C5.12788 2.021 4.83428 1.83182 4.51167 1.70778C4.18906 1.58373 3.84435 1.52748 3.49904 1.54251C3.15388 1.52749 2.80932 1.5837 2.48683 1.70764C2.16434 1.83157 1.87083 2.02059 1.62457 2.26291C1.37831 2.50522 1.18459 2.79565 1.05546 3.1161C0.926339 3.43655 0.864582 3.78016 0.874038 4.12551C0.864337 4.47102 0.925913 4.81481 1.05493 5.13547C1.18394 5.45613 1.37763 5.74677 1.62391 5.98928C1.8702 6.23178 2.1638 6.42096 2.48641 6.545C2.80902 6.66905 3.15373 6.7253 3.49904 6.71026Z" fill="white"/>
<path d="M3.49672 9.60826C1.62422 9.60826 1.23047 10.625 1.23047 11.4773V26.137C1.23047 26.9893 1.62422 28.006 3.49672 28.006C5.36922 28.006 5.76297 26.9893 5.76297 26.137V11.4773C5.76297 10.625 5.36922 9.60826 3.49672 9.60826Z" fill="white"/>
<path d="M28.2048 1.54251C26.6753 1.54251 25.9 2.17076 25.9 3.41151V12.3103H14.3815V3.41151C14.3815 2.55926 13.9878 1.54251 12.1153 1.54251C10.5858 1.54251 9.81055 2.17076 9.81055 3.41151V26.1353C9.81055 27.3743 10.5858 28.0043 12.1153 28.0043C13.9878 28.0043 14.3815 26.9875 14.3815 26.1353V16.4035H25.9V26.1353C25.9 27.3743 26.6753 28.0043 28.2048 28.0043C30.0773 28.0043 30.471 26.9875 30.471 26.1353V3.41151C30.471 2.55926 30.0773 1.54251 28.2048 1.54251Z" fill="white"/>
<path d="M47.2369 22.8365C46.685 22.8892 46.1568 23.0866 45.7056 23.4088C44.7046 23.9648 43.5745 24.2467 42.4296 24.226C41.8714 24.2737 41.3092 24.2093 40.7763 24.0364C40.2433 23.8636 39.7503 23.5859 39.3263 23.2196C38.9023 22.8533 38.5559 22.4059 38.3075 21.9038C38.059 21.4016 37.9135 20.8548 37.8796 20.2955H46.9149C48.3726 20.2955 49.5784 20.0768 49.5784 17.394C49.6352 16.3397 49.4714 15.2852 49.0972 14.2979C48.7231 13.3106 48.1469 12.4123 47.4057 11.6605C46.6644 10.9086 45.7743 10.3199 44.7924 9.93184C43.8105 9.5438 42.7583 9.36504 41.7034 9.40701C36.6284 9.40701 33.3594 13.1188 33.3594 18.857C33.3594 24.6548 36.6721 28.1145 42.2196 28.1145C44.1942 28.1766 46.1454 27.6739 47.8441 26.6655C48.2003 26.5051 48.5073 26.2528 48.7337 25.9345C48.9601 25.6162 49.0976 25.2433 49.1321 24.8543C49.1405 24.5958 49.0978 24.3382 49.0064 24.0963C48.9149 23.8545 48.7766 23.633 48.5994 23.4447C48.4222 23.2564 48.2095 23.105 47.9735 22.9991C47.7376 22.8932 47.4831 22.835 47.2246 22.8278M41.6246 13.0575C42.1209 13.04 42.6152 13.1302 43.0733 13.322C43.5314 13.5138 43.9425 13.8025 44.2783 14.1684C44.6141 14.5343 44.8666 14.9687 45.0184 15.4415C45.1703 15.9144 45.2178 16.4145 45.1579 16.9075H37.8411C38.2244 14.3875 39.5334 13.0575 41.6351 13.0575" fill="white"/>
<path d="M61.6201 9.52776C60.622 9.50496 59.6371 9.75911 58.7747 10.262C57.9122 10.7649 57.2059 11.4969 56.7342 12.3768V11.4808C56.7575 11.2434 56.7315 11.0038 56.6577 10.777C56.5839 10.5502 56.464 10.3412 56.3054 10.163C56.0778 9.96159 55.8118 9.80841 55.5233 9.71276C55.2349 9.61711 54.93 9.58096 54.6271 9.60651C53.1764 9.60651 52.4414 10.2348 52.4414 11.4755V26.1353C52.4414 26.9875 52.8334 28.0043 54.7077 28.0043C56.5819 28.0043 56.9722 26.9875 56.9722 26.1353V16.0343C57.3885 15.2476 58.0319 14.6044 58.8187 14.1884C59.6055 13.7723 60.4994 13.6027 61.3839 13.7015C62.9344 13.6613 63.5679 13.0505 63.5679 11.6015C63.5679 10.1525 62.9851 9.53476 61.6201 9.53476" fill="white"/>
<path d="M73.9742 9.52776C72.5409 9.46863 71.1248 9.85767 69.9229 10.6408V2.37901C69.9229 1.52676 69.5292 0.51001 67.6567 0.51001C65.7842 0.51001 65.3904 1.52676 65.3904 2.37901V23.4735C65.2855 24.1206 65.384 24.7843 65.6724 25.373C65.9608 25.9617 66.4248 26.4463 67.0004 26.76C68.7967 27.6946 70.7982 28.165 72.8227 28.1285C74.0989 28.2296 75.3817 28.052 76.5824 27.608C77.783 27.1639 78.8728 26.4641 79.7761 25.557C80.6794 24.6499 81.3746 23.5572 81.8136 22.3546C82.2525 21.1521 82.4247 19.8685 82.3182 18.5928C82.3182 13.089 79.0422 9.53301 73.9742 9.53301M72.8227 24.3905C71.8035 24.3961 70.8016 24.1265 69.9229 23.61V14.2755C70.7941 13.5947 71.8749 13.2377 72.9802 13.2658C75.8712 13.2658 77.6667 15.4113 77.6667 18.8658C77.6667 22.3203 75.8554 24.387 72.8209 24.387" fill="white"/>
<path d="M81.1779 3.70026L80.6984 2.98451C80.8236 2.94134 80.9316 2.85895 81.0063 2.74956C81.081 2.64018 81.1185 2.50962 81.1131 2.37726C81.1131 1.95726 80.8157 1.70526 80.3187 1.70526H79.5942C79.4857 1.70526 79.4629 1.77001 79.4629 1.82601V3.75101C79.4629 3.83151 79.5067 3.87176 79.5942 3.87176H79.8742C79.9617 3.87176 80.0054 3.83151 80.0054 3.75101V3.05101H80.1541L80.6354 3.78426C80.653 3.8122 80.6776 3.835 80.7068 3.85037C80.736 3.86573 80.7687 3.87311 80.8017 3.87176H81.0659C81.0885 3.87448 81.1113 3.87122 81.1322 3.86231C81.1531 3.8534 81.1713 3.83916 81.1849 3.82101C81.1955 3.80298 81.2011 3.78244 81.2011 3.76151C81.2011 3.74059 81.1955 3.72004 81.1849 3.70201M80.5969 2.38076C80.5969 2.52951 80.5129 2.59251 80.3187 2.59251H80.0124V2.16726H80.3134C80.5146 2.16726 80.5969 2.23026 80.5969 2.38076Z" fill="white"/>
<path d="M80.2786 0.662262C79.8581 0.662262 79.447 0.786964 79.0974 1.0206C78.7477 1.25424 78.4751 1.58631 78.3142 1.97483C78.1533 2.36335 78.1112 2.79087 78.1932 3.20332C78.2752 3.61577 78.4777 3.99464 78.7751 4.292C79.0725 4.58936 79.4513 4.79186 79.8638 4.87391C80.2762 4.95595 80.7038 4.91384 81.0923 4.75291C81.4808 4.59198 81.8129 4.31945 82.0465 3.96979C82.2802 3.62013 82.4049 3.20904 82.4049 2.78851C82.4044 2.22474 82.1802 1.68419 81.7816 1.28554C81.3829 0.886889 80.8424 0.662725 80.2786 0.662262ZM80.2786 4.51226C79.9377 4.51226 79.6044 4.41117 79.321 4.22176C79.0375 4.03235 78.8165 3.76314 78.6861 3.44816C78.5556 3.13319 78.5215 2.7866 78.588 2.45222C78.6545 2.11785 78.8187 1.81071 79.0598 1.56964C79.3008 1.32857 79.608 1.16439 79.9423 1.09788C80.2767 1.03137 80.6233 1.06551 80.9383 1.19597C81.2532 1.32644 81.5225 1.54738 81.7119 1.83085C81.9013 2.11432 82.0024 2.44759 82.0024 2.78851C82.001 3.24525 81.8189 3.68289 81.496 4.00586C81.173 4.32882 80.7354 4.51088 80.2786 4.51226Z" fill="white"/>
</g>
<defs>
<clipPath id="clip0_1_696">
<rect width="84" height="28" fill="white" transform="translate(0 0.51001)"/>
</clipPath>
</defs>
</svg>
